 <svg
   xmlns="http://www.w3.org/2000/svg"
   x="0px"
   y="0px"
   width="33"
   height="33"
   viewBox="0 0 172 172"
   style="fill:#000000"
 >
   <g
     fill="none"
     fillRule="nonzero"
     stroke="none"
     strokeWidth="1"
     strokeLinecap="butt"
     strokeLinejoin="miter"
     strokeMiterlimit="10"
     strokeDasharray=""
     strokeDashoffset="0"
     fontFamily="none"
     fontWeight="none"
     fontSize="none"
     textAnchor="none"
     style="mix-blend-mode: normal"
   >
     <path d="M0,172v-172h172v172z" fill="none"></path>
     <g fill="#e74c3c">
       <path d="M101.26276,11.46667c-12.0234,0 -20.99609,9.82198 -20.99609,20.99609v19.3388c-15.76833,0.8367 -30.18894,5.04079 -41.70104,11.63463c-4.43634,-4.26014 -10.37662,-6.1519 -16.1362,-6.14766c-6.24468,0.0046 -12.62857,2.16849 -17.03203,7.12187l-0.10078,0.11198l-0.10078,0.11198c-4.22415,5.2792 -5.89677,12.35137 -4.77031,19.37239c1.02874,6.41197 4.74234,12.84883 11.19792,17.06562c-0.04228,0.7118 -0.15677,1.40875 -0.15677,2.12761c0,28.4488 33.4368,51.6 74.53333,51.6c41.09653,0 74.53333,-23.1512 74.53333,-51.6c0,-0.71886 -0.11449,-1.4158 -0.15677,-2.12761c6.45557,-4.21679 10.16918,-10.65365 11.19792,-17.06562c1.12646,-7.02102 -0.54616,-14.0932 -4.77031,-19.37239l-0.10078,-0.11198l-0.10078,-0.11198c-4.40404,-4.95406 -10.78684,-7.11728 -17.03203,-7.12187c-5.76006,-0.00424 -11.70118,1.88595 -16.1362,6.14766c-11.5121,-6.59385 -25.93272,-10.79793 -41.70104,-11.63463v-19.3388c0,-5.61309 3.24056,-9.52943 9.52942,-9.52943c2.98528,0 6.62197,1.49585 12.31771,3.49375c4.81493,1.68894 11.08116,3.39599 19.09245,3.90807c1.91637,5.66494 7.23655,9.79818 13.52708,9.79818c7.88333,0 14.33333,-6.45 14.33333,-14.33333c0,-7.88333 -6.45,-14.33333 -14.33333,-14.33333c-5.38238,0 -10.04745,3.04108 -12.49688,7.45781c-6.84836,-0.37927 -11.87989,-1.75482 -16.32656,-3.31458c-5.18183,-1.81763 -9.94294,-4.14323 -16.1138,-4.14323zM22.42943,68.75521c2.26547,-0.00167 4.41788,0.59287 6.19245,1.55651c-6.32955,5.28326 -11.13193,11.45605 -14.03099,18.19661c-1.53932,-1.9001 -2.46691,-4.03339 -2.83307,-6.31562c-0.61786,-3.85105 0.53458,-7.85405 2.36276,-10.2237c1.72761,-1.85954 4.88234,-3.21129 8.30885,-3.2138zM149.55938,68.75521c3.42749,0.00252 6.59297,1.3548 8.32005,3.2138c1.82819,2.36965 2.98062,6.37265 2.36276,10.2237c-0.36617,2.28223 -1.29376,4.41552 -2.83308,6.31562c-2.89905,-6.74056 -7.70144,-12.91336 -14.03099,-18.19661c1.77053,-0.96251 3.91669,-1.55818 6.18126,-1.55651zM57.33333,80.26667c6.33533,0 11.46667,5.13133 11.46667,11.46667c0,6.33533 -5.13133,11.46667 -11.46667,11.46667c-6.33533,0 -11.46667,-5.13133 -11.46667,-11.46667c0,-6.33533 5.13133,-11.46667 11.46667,-11.46667zM114.66667,80.26667c6.33533,0 11.46667,5.13133 11.46667,11.46667c0,6.33533 -5.13133,11.46667 -11.46667,11.46667c-6.33533,0 -11.46667,-5.13133 -11.46667,-11.46667c0,-6.33533 5.13133,-11.46667 11.46667,-11.46667zM116.03281,111.99036c-3.6636,10.70413 -15.37841,19.8763 -30.03281,19.8763c-14.6544,0 -26.36921,-9.16778 -30.03281,-19.10364c6.59333,5.3492 17.58001,9.17109 30.03281,9.17109c12.4528,0 23.43948,-3.82628 30.03281,-9.94375z"></path>
     </g>
   </g>
 </svg>