<?xml version="1.0" standalone="no"?>
<!DOCTYPE svg PUBLIC "-//W3C//DTD SVG 20010904//EN"
 "http://www.w3.org/TR/2001/REC-SVG-20010904/DTD/svg10.dtd">
<svg version="1.0" xmlns="http://www.w3.org/2000/svg"
 width="1000.000000pt" height="1000.000000pt" viewBox="0 0 1000.000000 1000.000000"
 preserveAspectRatio="xMidYMid meet">
<metadata>
Created by potrace 1.14, written by Peter Selinger 2001-2017
</metadata>
<g transform="translate(0.000000,1000.000000) scale(0.100000,-0.100000)"
fill="#000000" stroke="none">
<path d="M4775 9230 c-3 -6 1 -7 9 -4 18 7 21 14 7 14 -6 0 -13 -4 -16 -10z"/>
<path d="M4670 9218 c0 -5 12 -5 28 -2 39 10 41 15 4 12 -18 -1 -32 -6 -32
-10z"/>
<path d="M4523 9212 c-13 -2 -23 -7 -23 -12 0 -9 38 -5 48 5 9 8 -1 11 -25 7z"/>
<path d="M4565 9210 c-4 -6 11 -7 42 -3 63 8 67 13 10 13 -25 0 -49 -4 -52
-10z"/>
<path d="M4446 9203 c-2 -2 -21 -6 -42 -9 -97 -14 -128 -19 -181 -28 -18 -4
-61 -13 -96 -21 -35 -8 -74 -17 -88 -19 -13 -2 -24 -5 -24 -6 0 -1 -12 -4 -27
-6 -41 -7 -294 -82 -373 -110 -115 -42 -218 -82 -280 -109 -16 -8 -52 -24 -80
-36 -104 -46 -282 -137 -369 -190 -17 -10 -44 -26 -61 -35 -235 -131 -614
-430 -839 -663 -45 -46 -88 -91 -97 -100 -17 -17 -144 -164 -169 -195 -8 -10
-26 -33 -40 -50 -79 -96 -260 -357 -260 -375 0 -5 -4 -11 -8 -13 -16 -6 -95
-145 -187 -328 -26 -52 -54 -107 -61 -121 -67 -131 -219 -545 -249 -679 -3
-16 -39 -165 -55 -235 -6 -22 -12 -53 -15 -70 -3 -16 -9 -55 -14 -85 -6 -30
-13 -75 -16 -100 -3 -25 -8 -63 -11 -84 -6 -40 -7 -49 -21 -191 -15 -161 -7
-716 12 -816 3 -16 14 -99 21 -154 2 -16 6 -41 8 -55 3 -13 8 -40 11 -60 3
-20 7 -45 9 -55 11 -54 37 -175 46 -210 6 -22 13 -50 16 -63 18 -83 121 -398
159 -487 7 -16 29 -69 49 -117 86 -209 238 -484 388 -706 225 -333 541 -673
863 -931 69 -55 183 -140 202 -149 12 -7 27 -18 35 -24 21 -21 196 -132 298
-191 279 -159 656 -319 925 -392 33 -9 76 -21 95 -26 19 -5 46 -12 60 -15 14
-3 34 -8 45 -11 11 -3 29 -8 40 -9 28 -5 47 -9 70 -17 20 -7 62 -14 120 -21
17 -2 44 -7 60 -11 32 -7 48 -9 131 -19 28 -4 59 -8 70 -10 69 -13 256 -21
489 -21 261 0 394 7 545 29 19 2 58 8 85 11 28 4 106 18 175 32 156 31 139 27
240 53 47 12 90 23 95 24 20 5 190 57 205 63 8 3 20 7 25 8 24 6 215 80 265
102 30 14 60 26 65 27 6 2 48 21 95 43 47 22 88 40 91 39 3 -1 14 5 23 13 9 8
41 26 71 41 30 15 61 33 70 40 8 7 15 9 15 4 0 -5 4 -4 8 2 4 6 34 25 67 44
359 202 793 565 1075 900 30 36 58 67 61 70 3 3 49 64 102 135 54 72 101 135
106 141 4 5 14 21 21 35 7 13 16 26 19 29 12 9 111 169 111 179 0 5 4 11 8 13
10 4 115 196 168 307 42 87 134 297 134 305 0 2 5 17 12 33 6 15 12 33 14 38
1 6 16 46 32 90 16 44 30 85 32 90 1 6 4 15 6 20 1 6 7 26 13 45 5 19 18 67
29 105 22 77 71 291 78 339 2 17 6 42 9 56 8 36 15 81 20 121 2 19 6 50 9 69
3 19 8 62 11 95 3 33 7 70 10 83 2 12 0 24 -4 26 -4 3 -7 -5 -8 -17 -1 -28
-11 -107 -23 -177 -5 -30 -12 -75 -15 -100 -4 -24 -8 -48 -11 -51 -2 -4 -6
-22 -9 -40 -7 -49 -14 -83 -36 -173 -11 -45 -22 -91 -24 -103 -3 -12 -10 -35
-16 -50 -6 -16 -10 -28 -9 -28 3 0 -13 -60 -19 -70 -3 -5 -6 -13 -7 -17 -1 -5
-2 -9 -4 -10 -1 -2 -3 -10 -5 -18 -21 -97 -174 -465 -262 -630 -79 -147 -106
-195 -119 -211 -8 -8 -14 -19 -14 -23 0 -4 -13 -26 -28 -49 -16 -23 -61 -91
-102 -152 -85 -128 -85 -127 -300 -390 -41 -49 -351 -357 -409 -405 -30 -25
-64 -54 -77 -65 -12 -11 -32 -27 -44 -35 -12 -8 -30 -22 -40 -30 -10 -8 -27
-22 -37 -30 -63 -51 -219 -160 -229 -160 -4 0 -17 -9 -28 -19 -52 -47 -382
-226 -586 -318 -84 -38 -271 -109 -298 -114 -4 0 -15 -5 -25 -11 -27 -14 -265
-85 -347 -103 -8 -2 -44 -10 -80 -19 -36 -8 -78 -17 -95 -20 -142 -26 -208
-37 -243 -42 -164 -20 -198 -23 -317 -30 -237 -14 -565 -5 -755 21 -25 3 -58
7 -75 10 -43 5 -160 25 -237 39 -205 39 -618 161 -715 211 -15 8 -32 15 -36
15 -4 0 -29 10 -55 21 -26 12 -67 30 -92 41 -114 51 -339 170 -455 241 -48 30
-301 200 -305 206 -3 4 -30 25 -60 46 -30 22 -62 47 -71 55 -9 8 -38 33 -64
55 -26 22 -66 56 -89 75 -61 52 -304 297 -356 359 -25 29 -56 66 -70 81 -51
57 -70 80 -70 89 0 5 -4 11 -8 13 -28 11 -354 494 -357 528 0 3 -8 16 -17 30
-9 14 -27 48 -40 75 -13 28 -26 52 -29 55 -5 4 -107 230 -138 305 -5 11 -13
31 -20 45 -37 83 -151 446 -165 525 -2 17 -10 48 -17 70 -6 22 -13 49 -14 60
-2 11 -13 72 -25 135 -22 124 -25 143 -35 235 -3 33 -8 74 -10 92 -23 163 -22
584 0 803 14 133 15 140 35 265 15 92 20 116 32 175 7 30 13 60 14 65 1 6 3
13 4 18 3 9 4 14 14 57 4 19 17 66 28 104 11 38 21 77 23 87 2 10 9 27 15 38
6 12 8 21 5 21 -2 0 8 36 24 79 16 44 27 82 23 85 -3 3 1 6 8 6 7 0 11 3 8 6
-14 14 175 438 268 601 280 490 637 909 1059 1242 6 4 51 38 100 74 50 37 95
70 100 75 30 22 238 154 289 182 32 17 81 45 108 61 27 16 55 29 63 29 7 0 15
4 17 8 4 12 283 142 358 167 3 1 14 5 25 10 225 90 594 192 795 220 14 2 27 4
30 5 11 4 26 7 48 8 28 2 29 18 2 18 -12 0 -22 -2 -24 -3z"/>
<path d="M4818 8545 c-1 -2 -43 -6 -93 -9 -107 -7 -169 -13 -216 -21 -19 -3
-61 -10 -94 -16 -33 -5 -80 -14 -105 -19 -25 -5 -58 -12 -75 -15 -16 -3 -73
-16 -125 -30 -52 -14 -102 -27 -110 -29 -28 -7 -265 -88 -295 -101 -16 -8 -64
-28 -105 -45 -90 -39 -280 -134 -332 -167 -21 -13 -38 -21 -38 -18 0 3 -6 1
-12 -5 -7 -6 -53 -35 -102 -66 -316 -195 -625 -472 -889 -795 -28 -34 -182
-248 -204 -285 -118 -190 -215 -372 -277 -519 -20 -49 -41 -99 -46 -110 -40
-90 -140 -420 -155 -513 -4 -20 -11 -50 -15 -67 -5 -16 -12 -48 -15 -70 -3
-22 -8 -53 -11 -70 -4 -16 -7 -43 -9 -60 -1 -16 -4 -30 -5 -30 -1 0 -3 -18 -5
-40 -10 -113 -17 -181 -20 -192 -2 -7 -1 -15 4 -17 4 -3 8 0 8 7 1 21 14 131
18 152 3 11 7 38 10 60 11 69 14 89 20 115 8 39 17 84 20 100 1 8 5 22 8 30 4
8 9 26 11 40 6 31 44 170 53 190 3 8 7 20 8 25 0 6 6 23 13 38 7 16 12 31 12
35 0 8 53 147 75 197 7 17 20 48 30 70 35 80 121 247 183 355 80 139 265 393
383 525 71 79 249 256 313 310 32 28 64 55 70 60 31 30 225 175 234 175 6 0
12 3 14 8 4 10 78 64 78 57 0 -3 6 -1 13 5 78 66 388 226 587 303 63 24 124
48 135 52 11 5 23 9 28 10 4 2 9 4 12 5 3 1 8 3 13 4 4 1 32 9 62 19 77 23
189 54 230 63 19 4 42 9 50 11 8 2 24 5 35 7 11 2 36 7 55 11 19 4 46 9 60 10
14 2 25 4 25 5 0 1 14 4 30 6 17 2 48 5 70 9 22 3 56 7 75 9 19 3 35 5 35 6 0
1 50 4 110 7 153 9 381 8 500 -1 144 -12 156 -13 195 -19 19 -3 58 -9 85 -13
28 -3 59 -8 70 -11 11 -2 40 -8 65 -13 71 -13 104 -20 122 -26 9 -3 25 -6 35
-8 44 -9 154 -41 281 -82 160 -52 418 -168 572 -257 47 -27 100 -58 119 -69
55 -32 186 -121 189 -130 2 -4 8 -8 13 -8 8 0 98 -67 156 -115 7 -5 18 -15 25
-20 148 -119 400 -374 493 -500 17 -22 32 -42 35 -45 19 -16 108 -142 172
-240 119 -183 239 -413 310 -595 10 -27 25 -64 33 -80 8 -17 16 -42 18 -55 3
-14 10 -36 15 -50 27 -64 102 -345 117 -435 4 -22 9 -53 11 -70 3 -16 7 -41
10 -55 2 -14 7 -47 10 -75 3 -27 8 -61 10 -75 10 -55 18 -233 18 -385 0 -203
-9 -350 -30 -467 -3 -18 -6 -40 -6 -48 -1 -25 -38 -211 -53 -270 -8 -30 -17
-70 -20 -89 -3 -19 -10 -42 -16 -52 -5 -11 -7 -19 -5 -19 6 0 -84 -264 -111
-326 -9 -21 -18 -45 -19 -52 -3 -16 -178 -366 -202 -404 -9 -15 -43 -70 -75
-121 -32 -51 -92 -138 -133 -192 -79 -106 -80 -108 -158 -200 -63 -76 -282
-295 -360 -360 -32 -28 -64 -54 -70 -60 -28 -26 -107 -86 -171 -130 -38 -27
-72 -52 -75 -55 -6 -6 -14 -11 -160 -98 -167 -100 -190 -112 -206 -112 -8 0
-14 -4 -14 -9 0 -8 -277 -134 -325 -147 -5 -1 -48 -17 -95 -34 -84 -31 -113
-40 -285 -86 -93 -24 -227 -53 -280 -59 -16 -2 -43 -6 -60 -9 -16 -4 -52 -8
-80 -11 -98 -10 -150 -17 -155 -22 -2 -2 27 -1 65 2 39 4 95 8 125 10 30 2 55
4 55 5 0 1 16 3 35 5 39 4 86 11 145 22 22 4 54 7 70 7 17 1 33 4 36 9 3 4 21
10 40 12 19 3 49 9 67 14 17 5 32 8 32 5 0 -3 8 0 19 5 10 6 31 13 47 15 81
15 361 109 490 166 111 49 394 193 394 201 0 5 5 9 10 9 36 0 495 327 508 361
2 5 8 9 13 9 12 0 309 295 371 370 55 65 135 165 163 204 11 16 35 48 53 71
17 24 32 49 32 54 0 6 3 11 8 11 4 0 23 27 42 60 19 33 38 60 43 60 4 0 7 5 7
11 0 6 15 37 34 68 45 74 148 275 169 328 9 23 25 61 36 85 40 87 128 348 147
432 9 38 12 51 14 51 1 0 4 11 7 25 7 39 11 55 13 55 2 0 5 15 13 60 3 17 8
39 10 50 5 22 19 101 22 125 14 96 17 119 21 140 26 163 26 622 -1 845 -2 17
-6 50 -9 75 -3 25 -8 56 -11 70 -3 14 -7 39 -10 55 -6 41 -15 87 -21 107 -3
10 -7 30 -10 45 -4 25 -11 57 -20 88 -2 6 -5 19 -8 30 -29 122 -104 346 -160
477 -9 21 -17 41 -17 45 0 5 -5 14 -11 21 -6 6 -7 12 -2 12 5 0 5 4 -1 8 -5 4
-34 57 -63 117 -195 400 -501 798 -838 1090 -38 33 -78 68 -89 78 -37 34 -199
153 -285 210 -47 31 -90 61 -97 67 -7 5 -14 10 -16 10 -2 0 -44 23 -93 51
-249 144 -613 295 -824 343 -8 2 -35 9 -60 16 -25 7 -56 14 -70 17 -14 2 -42
8 -63 14 -21 6 -54 12 -74 15 -19 2 -38 6 -42 8 -4 3 -34 8 -66 11 -33 4 -62
9 -65 10 -3 2 -41 6 -85 10 -44 4 -89 9 -100 12 -23 5 -492 13 -497 8z"/>
<path d="M6440 5613 c-36 -13 -101 -102 -116 -158 -2 -5 -13 -37 -24 -70 -12
-33 -23 -68 -25 -78 -2 -10 -6 -26 -9 -35 -3 -9 -8 -30 -11 -47 -2 -16 -7 -40
-9 -51 -2 -12 -7 -38 -10 -58 -10 -59 -25 -75 -68 -73 -21 2 -38 0 -38 -3 0
-3 -21 -5 -48 -6 -47 -1 -226 -13 -272 -18 -68 -8 -93 -33 -61 -65 18 -18 42
-19 166 -6 28 2 95 7 150 10 55 2 100 5 100 5 0 7 36 6 40 0 3 -5 7 -75 9
-155 4 -169 9 -159 -110 -241 -106 -72 -302 -153 -381 -157 -18 -1 -33 -4 -33
-7 0 -12 -221 -19 -260 -8 -34 9 -58 29 -67 55 -13 37 -11 45 26 127 38 82 36
118 -10 137 -27 11 -39 9 -107 -19 -149 -60 -190 -49 -153 41 61 143 27 225
-74 182 -66 -29 -106 -141 -81 -228 10 -33 1 -43 -90 -105 -60 -40 -177 -94
-230 -106 -16 -4 -42 -9 -59 -13 -16 -4 -82 -7 -146 -7 -143 -1 -150 3 -145
84 7 128 -60 176 -131 95 -52 -61 -55 -130 -7 -175 30 -29 30 -41 -1 -70 -47
-44 -136 -14 -149 51 -12 64 63 178 129 195 35 9 43 43 15 66 -20 16 -25 16
-58 2 -21 -8 -53 -30 -72 -48 -38 -35 -147 -116 -220 -162 -177 -112 -343
-142 -441 -80 -25 16 -58 49 -73 73 -38 59 -79 86 -141 91 -62 5 -132 -26
-200 -89 -64 -59 -68 -51 -40 81 4 20 67 124 85 140 3 3 32 48 64 100 33 52
66 106 75 120 28 45 101 184 102 197 1 5 9 24 19 43 15 30 38 101 44 135 1 6
4 15 7 20 11 20 1 112 -15 147 -33 68 -102 76 -156 16 -42 -46 -102 -174 -150
-318 -41 -122 -46 -139 -56 -189 -3 -13 -9 -31 -13 -40 -5 -9 -12 -34 -16 -56
-5 -22 -9 -42 -10 -45 0 -3 -9 -41 -18 -85 -10 -44 -22 -89 -26 -100 -9 -21
-160 -135 -179 -135 -6 0 -12 -4 -14 -8 -7 -19 -243 -117 -243 -101 0 1 -10
-3 -22 -9 -34 -19 -54 -6 -42 26 29 76 -2 157 -79 210 -68 46 -104 82 -98 97
3 8 0 15 -7 18 -7 2 16 33 51 69 64 66 73 87 47 108 -22 18 -45 5 -126 -73
-42 -39 -112 -106 -155 -147 -95 -89 -98 -94 -84 -120 17 -33 42 -24 111 40
35 32 69 59 74 60 6 0 33 -22 60 -50 28 -27 55 -50 60 -50 14 -1 61 -43 73
-66 9 -19 9 -42 -2 -70 -10 -27 -90 -55 -143 -50 -64 5 -91 17 -147 65 -48 42
-70 44 -81 10 -12 -36 52 -112 124 -148 117 -60 353 -40 540 45 31 15 65 30
76 35 21 9 23 11 117 71 l58 37 -4 -47 c-3 -26 -7 -58 -10 -72 -21 -105 -13
-161 21 -155 10 2 21 4 24 4 3 1 21 22 39 49 55 78 164 178 213 195 59 20 91
5 142 -67 39 -53 102 -99 157 -113 60 -14 153 -10 223 10 44 13 92 31 103 40
6 5 12 6 12 1 0 -5 4 -4 8 1 4 6 21 17 37 25 30 15 59 33 115 70 16 11 30 20
32 20 2 0 4 -16 5 -36 1 -20 7 -41 12 -48 6 -7 8 -15 5 -18 -7 -8 56 -59 93
-75 78 -32 180 3 206 70 6 16 14 17 64 10 71 -10 221 -10 286 0 67 11 247 75
247 88 0 4 10 9 23 13 13 3 33 13 45 23 93 77 110 85 154 77 61 -10 128 -11
134 -2 3 5 10 6 15 3 5 -4 15 -3 22 2 17 11 81 33 84 29 2 -2 -4 -20 -14 -42
-55 -127 -19 -215 104 -257 78 -27 263 -11 431 38 106 31 253 103 336 165 64
48 76 51 76 21 0 -26 64 -145 98 -183 50 -54 118 -87 199 -94 66 -6 147 4 198
26 105 45 153 70 235 125 107 73 134 95 241 200 42 41 81 75 88 75 7 0 29 -17
49 -38 20 -22 58 -53 83 -70 68 -46 84 -94 47 -135 -30 -32 -76 -47 -136 -43
-56 4 -95 22 -141 65 -37 35 -66 40 -79 14 -28 -53 90 -158 198 -179 158 -30
422 29 571 128 14 10 29 15 33 11 3 -3 6 -1 6 5 0 7 4 12 10 12 15 0 132 85
178 130 39 39 42 44 29 63 -22 33 -41 28 -116 -33 -84 -69 -162 -118 -254
-159 -85 -38 -196 -73 -209 -65 -5 3 -7 18 -3 32 13 61 13 72 3 105 -13 44
-49 85 -109 125 -48 32 -79 70 -79 96 0 8 27 43 59 76 55 56 59 64 49 86 -13
27 -34 30 -62 9 -17 -13 -220 -203 -330 -310 -188 -181 -422 -295 -564 -273
-125 20 -197 108 -231 287 -7 36 -5 55 12 100 12 31 25 59 30 62 5 3 8 9 7 13
-2 8 51 158 60 169 4 4 32 9 63 11 87 7 324 18 409 19 86 2 104 12 94 53 l-7
27 -192 -7 c-106 -4 -221 -9 -256 -11 -35 -2 -68 -2 -72 1 -5 2 -4 17 2 32 6
15 12 34 14 42 2 8 15 51 28 96 53 173 64 272 36 330 -22 48 -55 63 -99 47z
m38 -116 c-1 -84 -96 -413 -125 -434 -36 -27 -46 -17 -40 40 4 30 9 60 11 68
3 8 8 28 11 44 13 67 17 83 42 155 49 145 102 212 101 127z m-3262 -59 c32
-51 -64 -324 -189 -540 -88 -151 -99 -118 -31 93 69 215 177 459 204 459 5 0
12 -5 16 -12z m3116 -493 c-4 -36 -30 -87 -41 -81 -10 6 -8 87 2 103 4 6 15
10 25 8 12 -2 16 -10 14 -30z m-1272 -144 c-4 -16 -13 -38 -20 -48 -9 -15 -10
-12 -4 17 5 31 20 60 30 60 1 0 -1 -13 -6 -29z m-844 -256 c0 -14 -4 -25 -8
-25 -10 0 -11 34 -1 43 9 10 9 10 9 -18z"/>
<path d="M1469 5218 c-5 -9 -5 -48 -1 -43 6 6 11 45 5 45 -2 0 -4 -1 -4 -2z"/>
<path d="M9221 4754 c0 -11 3 -14 6 -6 3 7 2 16 -1 19 -3 4 -6 -2 -5 -13z"/>
<path d="M9217 4710 c-3 -11 -1 -20 4 -20 5 0 9 9 9 20 0 11 -2 20 -4 20 -2 0
-6 -9 -9 -20z"/>
<path d="M3156 3534 c-7 -19 1 -34 19 -34 8 0 16 4 19 9 9 14 -4 41 -19 41 -7
0 -16 -7 -19 -16z"/>
<path d="M5433 3520 c-33 -20 -58 -62 -50 -84 9 -23 24 -20 30 7 10 38 32 59
68 62 49 5 72 -16 75 -67 2 -57 -21 -90 -129 -182 -33 -28 -54 -53 -49 -58 12
-12 228 -6 224 7 -1 6 -35 11 -75 12 -39 1 -79 2 -87 2 -9 1 -5 8 12 19 46 30
124 120 134 154 12 41 2 94 -23 119 -26 26 -94 31 -130 9z"/>
<path d="M5942 3524 c-41 -17 -62 -64 -64 -147 -4 -131 29 -187 109 -187 24 0
53 5 64 10 67 36 78 250 16 309 -29 26 -84 33 -125 15z m90 -29 c26 -10 42
-64 40 -135 -3 -86 -5 -95 -27 -120 -26 -29 -78 -27 -109 5 -24 24 -25 31 -23
121 2 91 3 97 30 120 27 23 48 25 89 9z"/>
<path d="M6450 3529 c-29 -10 -60 -56 -60 -88 0 -30 19 -26 31 6 14 38 46 62
77 58 15 -1 32 -3 38 -4 13 -1 26 -34 28 -71 2 -44 -38 -99 -127 -173 -31 -27
-57 -53 -57 -58 0 -5 51 -9 115 -9 98 0 115 2 115 16 0 12 -10 15 -47 14 -27
-1 -65 -1 -87 -1 l-39 1 37 29 c93 74 134 148 122 217 -10 53 -84 84 -146 63z"/>
<path d="M6872 3521 c-14 -15 -13 -16 14 -19 l29 -3 -1 -154 c-1 -143 1 -155
17 -155 17 0 18 13 18 169 l-1 169 -30 4 c-19 3 -36 -1 -46 -11z"/>
<path d="M2726 3518 c-9 -5 -16 -6 -16 -3 0 18 -49 -44 -51 -65 -6 -58 17 -82
106 -110 74 -23 95 -64 56 -107 -15 -16 -29 -20 -63 -17 -23 2 -44 8 -46 14
-8 23 -38 49 -48 42 -16 -10 0 -48 29 -67 33 -21 96 -25 130 -8 34 17 57 66
48 102 -8 29 -63 71 -93 71 -33 0 -77 29 -84 56 -8 33 20 63 66 69 26 4 38 -1
59 -24 25 -27 51 -31 51 -8 0 13 -48 57 -64 58 -6 1 -23 2 -38 3 -14 2 -33 -1
-42 -6z"/>
<path d="M3574 3448 c-16 -4 -35 -15 -41 -25 -12 -15 -13 -15 -13 5 0 37 -30
27 -31 -10 -1 -31 0 -204 1 -220 1 -20 30 -6 31 15 4 163 4 167 24 186 26 25
74 32 102 14 28 -18 36 -51 36 -145 -1 -67 2 -78 16 -78 16 0 17 11 16 93 -3
119 -1 110 -30 140 -29 28 -67 37 -111 25z"/>
<path d="M4073 3445 c-70 -30 -99 -119 -61 -196 24 -51 100 -79 157 -57 26 9
71 53 71 68 0 20 -26 14 -49 -12 -45 -50 -125 -43 -150 13 -16 37 -10 112 12
133 22 22 71 40 75 27 2 -5 10 -7 17 -5 8 3 27 -7 42 -22 24 -25 53 -40 53
-29 0 16 -25 54 -43 65 -35 21 -92 28 -124 15z"/>
<path d="M4572 3435 c-45 -25 -62 -56 -62 -116 0 -63 18 -96 65 -119 64 -31
125 -16 165 40 18 25 19 30 6 30 -9 0 -30 -13 -46 -29 -53 -50 -142 -27 -152
40 -3 24 -3 24 99 24 56 0 104 3 108 6 3 4 3 24 -1 44 -7 40 -42 85 -71 90
-10 2 -18 4 -18 5 0 1 -13 3 -28 4 -16 1 -45 -8 -65 -19z m136 -55 c12 -18 19
-36 16 -39 -3 -3 -43 -7 -89 -7 -98 -2 -113 11 -69 57 46 48 105 43 142 -11z"/>
<path d="M3159 3443 c0 -5 -1 -61 -1 -127 -1 -89 2 -120 13 -126 7 -5 15 -8
16 -6 3 3 6 183 4 239 -1 17 -7 27 -16 27 -8 0 -15 -3 -16 -7z"/>
</g>
</svg>
