

    <svg xmlns="http://www.w3.org/2000/svg" fill="none" viewBox="0 0 1000 1000" width="80px" height="80px" >
      <path  d="M0 0H1000V1000H0z"></path>
      <ellipse
        cx="365.193"
        cy="728.639"
        fill="#ff6242"
        rx="154.013"
        ry="96.227"
      ></ellipse>
      <ellipse
        cx="365.193"
        cy="728.639"
        fill="none"
        stroke="#070808"
        strokeMiterlimit="10"
        strokeWidth="6"
        rx="154.013"
        ry="96.227"
      ></ellipse>
      <path
        fill="#ffda8f"
        stroke="#45413c"
        strokeLinecap="round"
        strokeLinejoin="round"
        d="M352.827 567.386l-22.379 71.153a52.5 52.5 0 0050.077 68.246h0a52.5 52.5 0 0052.351-48.612l6.512-87.778z"
      ></path>
      <path
        fill="#ffbe3d"
        d="M330.448 638.539s45.713 18.015 74.032 2.39 37.108-43.943 37.108-43.943l-10.742-26.367-84.958-3.906z"
      ></path>
      <path
        fill="none"
        stroke="#070808"
        strokeMiterlimit="10"
        strokeWidth="6"
        d="M352.827 567.386l-22.379 71.153a52.5 52.5 0 0050.077 68.246h0a52.5 52.5 0 0052.351-48.612l6.512-87.778z"
      ></path>
      <path
        fill="#724f3d"
        d="M389.925 468.458a78.693 78.693 0 10-157.386 0c8.081 9.845 2.353 21.836 6.567 31.477a78.693 78.693 0 10144.252 0 78.392 78.392 0 006.567-31.477z"
      ></path>
      <path
        fill="#a86c4d"
        d="M330.919 569.565c-43.461 0-74.7-15.542-73.86-59 1-51.945 44.455-40.755 44.455-51.95 0-18.22-6.793-58.638-4.743-89.895-38.739.937-76.517 13.4-85.453 44.681-5.406 18.92 11.731 44.38 24.575 58.1 3.393 12.726-15.363 13.3 3.213 28.427a78.683 78.683 0 00134.214 79.8c-11.164 6.081-28.795-10.163-42.401-10.163z"
      ></path>
      <path
        fill="none"
        stroke="#070808"
        strokeMiterlimit="10"
        strokeWidth="6"
        d="M389.925 468.458c0-43.461-37.514-63.307-72.106-89.617-41.4-31.493-154.507 14.4-85.28 89.617 19.006 20.65-22.13 7.509 6.567 31.477a78.693 78.693 0 10144.252 0 78.392 78.392 0 006.567-31.477z"
      ></path>
      <path
        fill="#ffda8f"
        stroke="#45413c"
        strokeLinecap="round"
        strokeLinejoin="round"
        d="M299.7 408.038h195.784v109.14a97.892 97.892 0 01-97.892 97.892h0a97.892 97.892 0 01-97.892-97.892v-109.14h0z"
      ></path>
      <path
        fill="#ffbe3d"
        d="M316.6 456.045s25.479 11.245 72.5 5.837c43.844-5.043 79.958-23.92 79.958-23.92s25.154 15.509 25.154 24.519c10.94-3.861 16.088-57.273 16.088-57.273l-39.254-7.078S317.884 430.305 316.6 456.045zM410.813 595.119c-80.982 9-108.082-72.207-108.082-72.207a50.275 50.275 0 00-2.557 3.931 97.9 97.9 0 0097.417 88.227 97.887 97.887 0 0087.468-53.9l2.39-13.674s-6.101 39.786-76.636 47.623z"
      ></path>
      <path
        fill="none"
        stroke="#070808"
        strokeMiterlimit="10"
        strokeWidth="6"
        d="M299.7 408.038h195.784v109.14a97.892 97.892 0 01-97.892 97.892h0a97.892 97.892 0 01-97.892-97.892v-109.14h0z"
      ></path>
      <path
        fill="#efdd5c"
        d="M460.94 357.182s-15.8 29.978 2.277 57.676c6.026 9.232 29.147 10.364 31.594 33.35 2.951 27.718 52.813-54.327 3.511-87.325-9.342-6.252-34.274-34.003-37.382-3.701z"
      ></path>
      <path
        fill="#724f3d"
        d="M460.94 357.182s-15.8 29.978 2.277 57.676c6.026 9.232 29.147 10.364 31.594 33.35 2.951 27.718 52.813-54.327 3.511-87.325-9.342-6.252-34.274-34.003-37.382-3.701z"
      ></path>
      <path
        fill="none"
        stroke="#070808"
        strokeLinecap="round"
        strokeLinejoin="round"
        strokeWidth="6"
        d="M460.94 357.182s-15.8 29.978 2.277 57.676c6.026 9.232 29.147 10.364 31.594 33.35 2.951 27.718 50.806-51.652 3.511-87.325-8.974-6.768-34.274-34.003-37.382-3.701z"
      ></path>
      <path
        fill="#a86c4d"
        d="M301.514 458.62c60.256-1.035 122.615-11.576 174.428-49.906 15.169-11.221 23.607-43.391 7.529-62.41-63.71-75.364-162.018-17.959-181.93 14.186-20.582 33.227-28.341 67.119-.027 98.13z"
      ></path>
      <path
        fill="#724f3d"
        d="M488.245 353.71c-1.843 12.168-7.838 23.426-15.614 29.179-45.921 33.97-100.125 46.111-153.807 49.157a35.427 35.427 0 01-35.424-22.914l-.088-.243c-10.1 11.222-9.274 35.124 18.2 49.731 60.256-1.035 122.615-11.576 174.428-49.906 13.34-9.867 21.466-35.927 12.305-55.004z"
      ></path>
      <path
        fill="none"
        stroke="#070808"
        strokeLinecap="round"
        strokeLinejoin="round"
        strokeWidth="6"
        d="M299.684 457.477c4.571 4.473 129.772-5.129 176.258-48.763 13.758-12.913 23.607-43.391 7.529-62.41-63.71-75.364-162.018-17.959-181.93 14.186-6.528 10.538-12.869 22.215-16.8 34.268"
      ></path>
      <path
        fill="none"
        stroke="#070808"
        strokeLinecap="round"
        strokeMiterlimit="10"
        strokeWidth="6"
        d="M481.911 470.308s-8.306-10.993-22.924-10.438"
      ></path>
      <ellipse
        cx="468.095"
        cy="484.39"
        fill="#070808"
        rx="5.231"
        ry="9.231"
        transform="rotate(-3.808 468.079 484.368)"
      ></ellipse>
      <path
        fill="none"
        stroke="#070808"
        strokeLinecap="round"
        strokeLinejoin="round"
        strokeWidth="6"
        d="M431.29 482.639L450.668 513.447 429.784 518.668"
      ></path>
      <path
        fill="none"
        stroke="#070808"
        strokeLinecap="round"
        strokeMiterlimit="10"
        strokeWidth="6"
        d="M365.874 481.7s7.917-11.276 22.545-11.233"
      ></path>
      <ellipse
        cx="386.128"
        cy="493.936"
        fill="#070808"
        rx="5.231"
        ry="9.231"
        transform="rotate(-11.448 386.133 493.943)"
      ></ellipse>
      <path
        fill="none"
        stroke="#070808"
        strokeLinecap="round"
        strokeLinejoin="round"
        strokeWidth="6"
        d="M405.115 556.139s19.848-26.777 48.077-11.689M460.94 357.182s-6.727 35.62-60.392 38.494"
      ></path>
      <path
        fill="#ffda8f"
        stroke="#45413c"
        strokeLinecap="round"
        strokeLinejoin="round"
        d="M314.173 511.687c-25.676 10.062-45.588-14.937-45.106-26.023 3.123-71.822 47.37-24.209 47.37-24.209"
      ></path>
      <path
        fill="none"
        stroke="#070808"
        strokeLinecap="round"
        strokeMiterlimit="10"
        strokeWidth="6"
        d="M314.173 511.687c-31.941 15.745-53.086-28.1-46.364-45.311 17.116-43.808 48.628-4.921 48.628-4.921"
      ></path>
      <rect
        width="274.247"
        height="211.69"
        x="593.245"
        y="174.179"
        fill="#cfd5ec"
        rx="43.906"
      ></rect>
      <rect
        width="274.247"
        height="211.69"
        x="607.249"
        y="157.702"
        fill="#73e1ff"
        rx="43.906"
      ></rect>
      <rect
        width="274.247"
        height="211.69"
        x="607.249"
        y="157.702"
        fill="none"
        stroke="#070808"
        strokeMiterlimit="10"
        strokeWidth="6"
        rx="43.906"
      ></rect>
      <circle
        cx="617.449"
        cy="418.222"
        r="23.449"
        fill="none"
        stroke="#070808"
        strokeMiterlimit="10"
        strokeWidth="6"
      ></circle>
      <circle
        cx="576.254"
        cy="461.524"
        r="14.491"
        fill="none"
        stroke="#070808"
        strokeMiterlimit="10"
        strokeWidth="6"
      ></circle>
      <rect
        width="179.601"
        height="50.157"
        x="651.217"
        y="283.054"
        fill="#fff"
        rx="11.309"
      ></rect>
      <path
        fill="#e4e4e4"
        d="M674.2 322.121a11.31 11.31 0 01-11.309-11.31v-27.538c0-.074.01-.146.011-.219h-.375a11.309 11.309 0 00-11.309 11.309V321.9a11.309 11.309 0 0011.309 11.309h156.981a11.3 11.3 0 0011.3-11.089z"
      ></path>
      <rect
        width="179.601"
        height="50.157"
        x="651.217"
        y="283.054"
        fill="none"
        stroke="#070808"
        strokeMiterlimit="10"
        strokeWidth="6"
        rx="11.309"
      ></rect>
      <circle cx="687.96" cy="306.595" r="8.352" fill="#070808"></circle>
      <circle cx="714.923" cy="306.595" r="8.352" fill="#070808"></circle>
      <circle cx="741.887" cy="306.595" r="8.352" fill="#070808"></circle>
      <circle cx="768.85" cy="306.595" r="8.352" fill="#070808"></circle>
      <circle cx="795.814" cy="306.595" r="8.352" fill="#070808"></circle>
      <path
        fill="none"
        stroke="#070808"
        strokeLinecap="round"
        strokeMiterlimit="10"
        strokeWidth="6"
        d="M655.7 257.577s83.7-13.628 72.561-44.295c-9.356-25.765-33.007-6.855-32.185-.742 5.737 42.682 71.677 47.578 83.935 14.035 16.826-46.042-18.994-42.262-12.311-18.906s37.895-17.743 44.579 16.888"
      ></path>
      <path
        fill="#ea7aaf"
        d="M723.98 503.4a11.852 11.852 0 012.1-6.644 21.672 21.672 0 014.549-5.1 28.6 28.6 0 004.548-4.549 8.352 8.352 0 002.1-5.221 5.134 5.134 0 00-1.9-4.272 8.347 8.347 0 00-5.3-1.5q-6.644 0-9.413 7.039l-9.334-5.379a18.529 18.529 0 017.554-9.057 21.589 21.589 0 0111.589-3.2 19.508 19.508 0 0112.458 4.152 13.764 13.764 0 015.261 11.43 13.934 13.934 0 01-1.385 6.17 18.85 18.85 0 01-3.323 4.866q-1.938 2.016-3.875 3.8a25.043 25.043 0 00-3.323 3.678 6.42 6.42 0 00-1.384 3.8zm10.2 17.64a6.685 6.685 0 111.977-4.746 6.483 6.483 0 01-1.972 4.747zM480 226.055a14.437 14.437 0 012.556-8.1 26.425 26.425 0 015.543-6.218 34.846 34.846 0 005.544-5.544 10.172 10.172 0 002.554-6.363 6.256 6.256 0 00-2.313-5.206 10.171 10.171 0 00-6.46-1.832q-8.1 0-11.473 8.581l-11.377-6.556a22.589 22.589 0 019.208-11.04 26.313 26.313 0 0114.124-3.9 23.773 23.773 0 0115.185 5.062Q509.5 190 509.5 198.867a16.994 16.994 0 01-1.687 7.52 23.009 23.009 0 01-4.049 5.929q-2.364 2.459-4.724 4.628a30.434 30.434 0 00-4.05 4.483 7.824 7.824 0 00-1.686 4.628zm12.437 21.5a8.145 8.145 0 112.411-5.785 7.9 7.9 0 01-2.411 5.785z"
      ></path>
      <path
        fill="#ff6242"
        d="M420.925 937.592a2.267 2.267 0 002.421-2.334 2.071 2.071 0 00-2.29-2.2 2.2 2.2 0 00-2.421 2.139v.064a2.277 2.277 0 002.29 2.331z"
      ></path>


    </svg>
