<svg xmlns="http://www.w3.org/2000/svg" xmlns:xlink="http://www.w3.org/1999/xlink" width="500" zoomAndPan="magnify" viewBox="0 0 375 337.499995" height="450" preserveAspectRatio="xMidYMid meet" version="1.0"><defs><g><g id="id1"/></g><clipPath id="id2"><path d="M 28.878906 9.878906 L 346.40625 9.878906 L 346.40625 327.410156 L 28.878906 327.410156 Z M 28.878906 9.878906 " clip-rule="nonzero"/></clipPath></defs><g clip-path="url(#id2)"><path fill="rgb(0%, 0%, 0%)" d="M 191.117188 320.464844 C 105.351562 320.464844 35.824219 250.933594 35.824219 165.171875 C 35.824219 79.988281 104.417969 10.832031 189.382812 9.898438 C 188.800781 9.894531 188.222656 9.878906 187.644531 9.878906 C 99.960938 9.878906 28.878906 80.960938 28.878906 168.644531 C 28.878906 256.328125 99.960938 327.410156 187.644531 327.410156 C 275.324219 327.410156 346.410156 256.328125 346.410156 168.644531 C 346.410156 168.0625 346.394531 167.484375 346.386719 166.910156 C 345.453125 251.871094 276.304688 320.464844 191.117188 320.464844 " fill-opacity="1" fill-rule="nonzero"/></g><path fill="rgb(0%, 0%, 0%)" d="M 187.644531 35.679688 C 114.207031 35.679688 54.679688 95.207031 54.679688 168.644531 C 54.679688 169.308594 54.695312 169.96875 54.703125 170.628906 C 55.765625 100.300781 113.097656 43.617188 183.675781 43.617188 C 254.917969 43.617188 312.671875 101.367188 312.671875 172.613281 C 312.671875 243.195312 255.984375 300.523438 185.660156 301.582031 C 186.320312 301.59375 186.976562 301.609375 187.644531 301.609375 C 261.078125 301.609375 320.609375 242.078125 320.609375 168.644531 C 320.609375 95.207031 261.078125 35.679688 187.644531 35.679688 " fill-opacity="1" fill-rule="nonzero"/><g fill="rgb(0%, 0%, 0%)" fill-opacity="1"><g transform="translate(71.53266, 196.558585)"><g><path d="M 37.902344 -15.304688 C 37.625 -15.582031 37.296875 -15.691406 36.910156 -15.691406 C 36.519531 -15.691406 36.132812 -15.582031 35.859375 -15.304688 C 30.554688 -10.277344 24.035156 -6.742188 16.90625 -5.027344 C 16.628906 -4.917969 16.300781 -5.027344 16.132812 -5.25 C 15.96875 -5.523438 15.914062 -5.800781 16.078125 -6.078125 C 17.074219 -8.011719 16.851562 -10.332031 15.582031 -12.101562 C 14.808594 -13.148438 13.8125 -14.035156 12.652344 -14.695312 C 11.105469 -15.746094 9.394531 -16.960938 9.335938 -18.234375 C 9.394531 -18.953125 9.667969 -19.613281 10.167969 -20.167969 L 13.148438 -22.984375 C 13.703125 -23.539062 13.757812 -24.421875 13.261719 -24.972656 C 12.761719 -25.582031 11.933594 -25.691406 11.269531 -25.195312 C 10.109375 -24.3125 9.007812 -23.316406 8.066406 -22.15625 L -0.441406 -14.199219 C -0.828125 -13.867188 -0.996094 -13.316406 -0.882812 -12.820312 C -0.773438 -12.265625 -0.386719 -11.878906 0.109375 -11.714844 C 0.609375 -11.601562 1.160156 -11.714844 1.546875 -12.101562 L 5.746094 -16.023438 C 5.96875 -16.242188 6.242188 -16.300781 6.519531 -16.300781 C 6.796875 -16.242188 7.015625 -16.078125 7.128906 -15.855469 C 8.175781 -14.421875 9.503906 -13.207031 10.996094 -12.320312 C 11.824219 -11.824219 12.542969 -11.269531 13.148438 -10.554688 C 13.703125 -9.945312 13.980469 -9.117188 13.8125 -8.289062 C 13.648438 -7.460938 13.148438 -6.742188 12.433594 -6.355469 C 8.894531 -4.363281 4.421875 -5.304688 1.988281 -8.5625 C 1.601562 -9.171875 0.71875 -9.394531 0.0546875 -8.949219 C -0.609375 -8.5625 -0.828125 -7.734375 -0.441406 -7.015625 C 1.382812 -3.867188 4.640625 -1.824219 8.289062 -1.546875 C 9.226562 -1.382812 10.109375 -1.324219 11.050781 -1.324219 C 20.386719 -1.324219 31.878906 -7.183594 37.902344 -13.261719 C 38.457031 -13.8125 38.457031 -14.753906 37.902344 -15.304688 Z M 37.902344 -15.304688 "/></g></g></g><g fill="rgb(0%, 0%, 0%)" fill-opacity="1"><g transform="translate(107.224197, 196.558585)"><g><path d="M 43.59375 -13.207031 C 43.042969 -13.8125 42.15625 -13.867188 41.550781 -13.316406 C 41.4375 -13.261719 30.058594 -3.316406 21.714844 -4.640625 C 19.226562 -5.027344 17.074219 -6.519531 15.855469 -8.730469 C 14.808594 -10.664062 12.875 -11.878906 10.71875 -12.101562 C 8.011719 -12.265625 5.027344 -10.664062 1.878906 -7.347656 C 1.710938 -7.183594 1.4375 -7.128906 1.214844 -7.238281 C 0.996094 -7.347656 0.882812 -7.570312 0.9375 -7.847656 C 1.105469 -8.894531 1.601562 -11.546875 1.824219 -12.542969 C 1.824219 -12.375 2.210938 -13.148438 2.210938 -13.207031 C 6.90625 -19.613281 20.941406 -39.945312 15.46875 -46.464844 C 14.753906 -47.460938 13.425781 -47.902344 12.210938 -47.570312 C 11.105469 -47.242188 7.734375 -46.191406 2.542969 -27.738281 C 1.269531 -23.261719 0.109375 -18.453125 -0.828125 -13.921875 L -1.214844 -13.425781 C -1.601562 -12.929688 -1.601562 -12.265625 -1.269531 -11.714844 C -2.097656 -7.625 -2.652344 -3.867188 -2.929688 -0.996094 C -2.984375 -0.332031 -2.597656 0.277344 -1.988281 0.496094 C -1.382812 0.71875 -0.664062 0.496094 -0.277344 -0.0546875 C 5.359375 -8.234375 8.949219 -9.28125 10.554688 -9.226562 C 11.714844 -9.117188 12.761719 -8.398438 13.316406 -7.347656 C 14.972656 -4.363281 17.902344 -2.265625 21.328125 -1.769531 C 30.941406 -0.277344 42.929688 -10.71875 43.484375 -11.160156 C 44.035156 -11.714844 44.089844 -12.597656 43.59375 -13.207031 Z M 13.039062 -44.808594 C 13.148438 -44.808594 13.207031 -44.644531 13.261719 -44.589844 C 15.914062 -41.605469 4.917969 -19.394531 3.535156 -20.277344 C 2.210938 -21.105469 10.71875 -44.808594 13.039062 -44.808594 Z M 13.039062 -44.808594 "/></g></g></g><g fill="rgb(0%, 0%, 0%)" fill-opacity="1"><g transform="translate(148.993241, 196.558585)"><g><path d="M 40.277344 -15.691406 C 40.003906 -15.96875 39.671875 -16.078125 39.285156 -16.078125 C 38.898438 -16.078125 38.511719 -15.96875 38.234375 -15.691406 C 31.605469 -9.0625 22.210938 -6.023438 12.984375 -7.570312 C 12.265625 -7.734375 11.769531 -8.398438 11.878906 -9.117188 C 12.320312 -11.769531 12.101562 -14.476562 10.554688 -15.359375 C 9.558594 -15.914062 8.066406 -15.96875 6.296875 -12.984375 C 5.636719 -11.988281 5.414062 -10.773438 5.636719 -9.613281 C 5.910156 -8.453125 6.628906 -7.402344 7.625 -6.796875 C 8.234375 -6.296875 7.515625 -5.46875 7.128906 -5.082031 C 6.078125 -3.8125 4.253906 -3.589844 2.984375 -4.585938 C 1.382812 -5.304688 0.664062 -7.070312 1.269531 -8.675781 C 1.988281 -11.601562 4.863281 -14.144531 5.910156 -14.144531 C 6.683594 -14.144531 7.347656 -14.808594 7.347656 -15.582031 C 7.402344 -16.355469 6.742188 -17.015625 5.96875 -17.074219 L 5.910156 -17.074219 C 3.148438 -17.074219 -0.550781 -13.316406 -1.546875 -9.394531 C -2.488281 -6.519531 -1.160156 -3.371094 1.601562 -2.042969 C 2.652344 -1.4375 3.8125 -1.160156 5.027344 -1.105469 C 7.402344 -1.214844 9.503906 -2.652344 10.496094 -4.863281 C 10.609375 -5.027344 10.882812 -5.136719 11.105469 -5.082031 C 18.121094 -2.984375 30.941406 -4.308594 40.277344 -13.59375 C 40.554688 -13.867188 40.71875 -14.253906 40.71875 -14.640625 C 40.71875 -15.027344 40.554688 -15.414062 40.277344 -15.691406 Z M 9.007812 -9.394531 C 8.398438 -9.945312 8.289062 -10.828125 8.785156 -11.492188 C 8.949219 -11.769531 9.0625 -11.933594 9.171875 -12.101562 C 9.226562 -11.214844 9.171875 -10.277344 9.007812 -9.394531 Z M 9.007812 -9.394531 "/></g></g></g><g fill="rgb(0%, 0%, 0%)" fill-opacity="1"><g transform="translate(187.171039, 196.558585)"><g><path d="M 47.628906 -14.53125 C 47.351562 -14.808594 47.019531 -14.972656 46.632812 -14.972656 C 46.246094 -14.972656 45.859375 -14.808594 45.582031 -14.53125 C 36.023438 -5.195312 19.0625 -3.203125 15.414062 -5.359375 C 12.929688 -6.796875 13.207031 -8.507812 14.972656 -11.933594 C 15.800781 -13.59375 16.742188 -15.527344 15.140625 -16.6875 C 13.648438 -17.792969 12.210938 -17.074219 10.941406 -16.410156 C 9.117188 -15.359375 7.070312 -14.808594 4.917969 -14.808594 C 4.421875 -14.808594 3.976562 -15.691406 4.089844 -16.023438 C 7.183594 -22.820312 5.800781 -24.089844 5.304688 -24.585938 C 4.476562 -25.414062 3.203125 -25.359375 1.65625 -24.421875 C -0.882812 -22.597656 -1.988281 -19.339844 -1.105469 -16.300781 C -0.882812 -15.46875 -0.496094 -14.695312 0.0546875 -14.035156 C 0 -13.425781 0.277344 -12.875 0.828125 -12.597656 C 1.160156 -12.433594 1.546875 -12.433594 1.933594 -12.542969 C 2.875 -12.101562 3.921875 -11.878906 4.972656 -11.878906 C 7.238281 -11.824219 9.449219 -12.320312 11.4375 -13.425781 C 12.210938 -13.8125 12.488281 -13.480469 12.375 -13.261719 C 11.050781 -10.664062 8.675781 -5.910156 13.980469 -2.816406 C 15.855469 -1.933594 17.957031 -1.546875 20.054688 -1.710938 C 27.792969 -1.710938 39.945312 -5.027344 47.570312 -12.488281 C 47.847656 -12.707031 48.015625 -13.09375 48.015625 -13.480469 C 48.070312 -13.867188 47.902344 -14.253906 47.628906 -14.53125 Z M 1.601562 -17.570312 C 1.269531 -19.171875 1.824219 -20.828125 3.09375 -21.878906 C 2.707031 -20.386719 2.210938 -18.953125 1.601562 -17.515625 Z M 1.601562 -17.570312 "/></g></g></g><g fill="rgb(0%, 0%, 0%)" fill-opacity="1"><g transform="translate(232.476088, 196.558585)"><g><path d="M 37.902344 -15.027344 C 37.351562 -15.582031 36.410156 -15.582031 35.859375 -14.972656 C 35.746094 -14.863281 20.773438 0.222656 10.828125 -3.535156 C 6.410156 -5.25 4.53125 -10.386719 3.8125 -15.46875 C 4.808594 -17.902344 6.464844 -21.933594 8.011719 -26.464844 C 8.175781 -27.019531 8.34375 -27.074219 9.007812 -27.128906 C 16.464844 -27.679688 23.867188 -27.957031 28.234375 -27.957031 C 29.0625 -27.957031 29.671875 -28.621094 29.671875 -29.394531 C 29.671875 -30.222656 29.0625 -30.832031 28.234375 -30.832031 C 24.035156 -30.832031 17.128906 -30.5 10.054688 -30.113281 C 9.78125 -30.058594 9.28125 -30.222656 9.667969 -31.21875 C 12.320312 -38.785156 14.199219 -46.464844 13.039062 -48.789062 C 11.878906 -51.109375 10.332031 -51.164062 9.558594 -50.996094 C 5.46875 -50.222656 2.488281 -39.617188 1.160156 -30.941406 C 1.050781 -30.167969 0.664062 -29.503906 -0.0546875 -29.449219 C -8.730469 -28.785156 -15.855469 -28.289062 -15.96875 -28.289062 C -16.796875 -28.234375 -17.40625 -27.570312 -17.347656 -26.742188 C -17.347656 -25.96875 -16.6875 -25.304688 -15.855469 -25.359375 L -15.746094 -25.359375 C -15.582031 -25.359375 -8.894531 -25.859375 -0.550781 -26.464844 C -0.277344 -26.519531 0 -26.464844 0.222656 -26.246094 C 0.441406 -26.078125 0.609375 -25.800781 0.609375 -25.527344 C -0.222656 -12.375 3.09375 -3.371094 9.78125 -0.828125 C 11.214844 -0.332031 12.707031 -0.0546875 14.253906 -0.0546875 C 25.195312 -0.0546875 37.351562 -12.375 37.957031 -12.929688 C 38.234375 -13.207031 38.34375 -13.59375 38.34375 -13.980469 C 38.34375 -14.367188 38.179688 -14.753906 37.902344 -15.027344 Z M 4.089844 -31.050781 C 5.359375 -39.449219 7.902344 -46.078125 9.394531 -47.792969 C 9.558594 -47.902344 9.78125 -47.957031 10 -47.902344 C 10.167969 -47.847656 10.332031 -47.738281 10.441406 -47.515625 C 11.105469 -46.078125 9.226562 -39.0625 6.410156 -30.71875 C 6.296875 -30.222656 5.910156 -29.835938 5.359375 -29.78125 C 5.082031 -29.726562 4.808594 -29.726562 4.476562 -29.726562 C 3.921875 -29.726562 4.035156 -30.609375 4.089844 -30.996094 Z M 3.425781 -22.378906 C 2.875 -22.378906 3.09375 -26.246094 3.589844 -26.796875 C 4.035156 -27.074219 4.585938 -27.128906 5.027344 -26.851562 C 5.523438 -26.410156 4.035156 -22.378906 3.425781 -22.378906 Z M 3.425781 -22.378906 "/></g></g></g><g fill="rgb(0%, 0%, 0%)" fill-opacity="1"><g transform="translate(267.780889, 196.558585)"><g><path d="M 37.902344 -15.304688 C 37.625 -15.582031 37.296875 -15.691406 36.910156 -15.691406 C 36.519531 -15.691406 36.132812 -15.582031 35.859375 -15.304688 C 30.554688 -10.277344 24.035156 -6.742188 16.90625 -5.027344 C 16.628906 -4.917969 16.300781 -5.027344 16.132812 -5.25 C 15.96875 -5.523438 15.914062 -5.800781 16.078125 -6.078125 C 17.074219 -8.011719 16.851562 -10.332031 15.582031 -12.101562 C 14.808594 -13.148438 13.8125 -14.035156 12.652344 -14.695312 C 11.105469 -15.746094 9.394531 -16.960938 9.335938 -18.234375 C 9.394531 -18.953125 9.667969 -19.613281 10.167969 -20.167969 L 13.148438 -22.984375 C 13.703125 -23.539062 13.757812 -24.421875 13.261719 -24.972656 C 12.761719 -25.582031 11.933594 -25.691406 11.269531 -25.195312 C 10.109375 -24.3125 9.007812 -23.316406 8.066406 -22.15625 L -0.441406 -14.199219 C -0.828125 -13.867188 -0.996094 -13.316406 -0.882812 -12.820312 C -0.773438 -12.265625 -0.386719 -11.878906 0.109375 -11.714844 C 0.609375 -11.601562 1.160156 -11.714844 1.546875 -12.101562 L 5.746094 -16.023438 C 5.96875 -16.242188 6.242188 -16.300781 6.519531 -16.300781 C 6.796875 -16.242188 7.015625 -16.078125 7.128906 -15.855469 C 8.175781 -14.421875 9.503906 -13.207031 10.996094 -12.320312 C 11.824219 -11.824219 12.542969 -11.269531 13.148438 -10.554688 C 13.703125 -9.945312 13.980469 -9.117188 13.8125 -8.289062 C 13.648438 -7.460938 13.148438 -6.742188 12.433594 -6.355469 C 8.894531 -4.363281 4.421875 -5.304688 1.988281 -8.5625 C 1.601562 -9.171875 0.71875 -9.394531 0.0546875 -8.949219 C -0.609375 -8.5625 -0.828125 -7.734375 -0.441406 -7.015625 C 1.382812 -3.867188 4.640625 -1.824219 8.289062 -1.546875 C 9.226562 -1.382812 10.109375 -1.324219 11.050781 -1.324219 C 20.386719 -1.324219 31.878906 -7.183594 37.902344 -13.261719 C 38.457031 -13.8125 38.457031 -14.753906 37.902344 -15.304688 Z M 37.902344 -15.304688 "/></g></g></g><g fill="rgb(0%, 0%, 0%)" fill-opacity="1"><g transform="translate(98.514403, 236.70779)"><g><path d="M 5.25 0.125 C 4.414062 0.125 3.6875 -0.015625 3.0625 -0.296875 C 2.4375 -0.585938 1.941406 -0.988281 1.578125 -1.5 C 1.222656 -2.019531 1.03125 -2.597656 1 -3.234375 L 2.328125 -3.234375 C 2.390625 -2.617188 2.660156 -2.082031 3.140625 -1.625 C 3.617188 -1.164062 4.320312 -0.9375 5.25 -0.9375 C 6.09375 -0.9375 6.757812 -1.15625 7.25 -1.59375 C 7.75 -2.03125 8 -2.582031 8 -3.25 C 8 -3.789062 7.863281 -4.222656 7.59375 -4.546875 C 7.320312 -4.878906 6.976562 -5.125 6.5625 -5.28125 C 6.15625 -5.445312 5.597656 -5.625 4.890625 -5.8125 C 4.046875 -6.039062 3.378906 -6.257812 2.890625 -6.46875 C 2.398438 -6.6875 1.976562 -7.023438 1.625 -7.484375 C 1.28125 -7.941406 1.109375 -8.554688 1.109375 -9.328125 C 1.109375 -9.984375 1.273438 -10.5625 1.609375 -11.0625 C 1.953125 -11.570312 2.425781 -11.96875 3.03125 -12.25 C 3.644531 -12.539062 4.347656 -12.6875 5.140625 -12.6875 C 6.296875 -12.6875 7.226562 -12.398438 7.9375 -11.828125 C 8.65625 -11.265625 9.066406 -10.535156 9.171875 -9.640625 L 7.8125 -9.640625 C 7.726562 -10.148438 7.445312 -10.601562 6.96875 -11 C 6.488281 -11.40625 5.84375 -11.609375 5.03125 -11.609375 C 4.269531 -11.609375 3.640625 -11.40625 3.140625 -11 C 2.640625 -10.601562 2.390625 -10.0625 2.390625 -9.375 C 2.390625 -8.84375 2.523438 -8.414062 2.796875 -8.09375 C 3.078125 -7.769531 3.421875 -7.523438 3.828125 -7.359375 C 4.242188 -7.191406 4.804688 -7.015625 5.515625 -6.828125 C 6.328125 -6.597656 6.984375 -6.367188 7.484375 -6.140625 C 7.984375 -5.921875 8.40625 -5.582031 8.75 -5.125 C 9.101562 -4.675781 9.28125 -4.066406 9.28125 -3.296875 C 9.28125 -2.710938 9.125 -2.15625 8.8125 -1.625 C 8.5 -1.101562 8.035156 -0.679688 7.421875 -0.359375 C 6.816406 -0.0351562 6.09375 0.125 5.25 0.125 Z M 5.25 0.125 "/></g></g></g><g fill="rgb(0%, 0%, 0%)" fill-opacity="1"><g transform="translate(117.002864, 236.70779)"><g><path d="M 2.0625 -11.65625 C 1.8125 -11.65625 1.597656 -11.742188 1.421875 -11.921875 C 1.242188 -12.097656 1.15625 -12.316406 1.15625 -12.578125 C 1.15625 -12.847656 1.242188 -13.066406 1.421875 -13.234375 C 1.597656 -13.410156 1.8125 -13.5 2.0625 -13.5 C 2.3125 -13.5 2.523438 -13.410156 2.703125 -13.234375 C 2.890625 -13.066406 2.984375 -12.847656 2.984375 -12.578125 C 2.984375 -12.316406 2.890625 -12.097656 2.703125 -11.921875 C 2.523438 -11.742188 2.3125 -11.65625 2.0625 -11.65625 Z M 2.6875 -9.796875 L 2.6875 0 L 1.4375 0 L 1.4375 -9.796875 Z M 2.6875 -9.796875 "/></g></g></g><g fill="rgb(0%, 0%, 0%)" fill-opacity="1"><g transform="translate(129.33583, 236.70779)"><g><path d="M 6.03125 -9.984375 C 7.207031 -9.984375 8.164062 -9.617188 8.90625 -8.890625 C 9.644531 -8.171875 10.015625 -7.125 10.015625 -5.75 L 10.015625 0 L 8.78125 0 L 8.78125 -5.59375 C 8.78125 -6.664062 8.515625 -7.484375 7.984375 -8.046875 C 7.453125 -8.609375 6.722656 -8.890625 5.796875 -8.890625 C 4.847656 -8.890625 4.09375 -8.585938 3.53125 -7.984375 C 2.96875 -7.390625 2.6875 -6.507812 2.6875 -5.34375 L 2.6875 0 L 1.4375 0 L 1.4375 -9.796875 L 2.6875 -9.796875 L 2.6875 -8.125 C 3 -8.726562 3.445312 -9.1875 4.03125 -9.5 C 4.625 -9.820312 5.289062 -9.984375 6.03125 -9.984375 Z M 6.03125 -9.984375 "/></g></g></g><g fill="rgb(0%, 0%, 0%)" fill-opacity="1"><g transform="translate(148.918999, 236.70779)"><g><path d="M 0.859375 -4.90625 C 0.859375 -5.914062 1.0625 -6.800781 1.46875 -7.5625 C 1.875 -8.320312 2.4375 -8.910156 3.15625 -9.328125 C 3.875 -9.742188 4.695312 -9.953125 5.625 -9.953125 C 6.832031 -9.953125 7.828125 -9.648438 8.609375 -9.046875 C 9.390625 -8.453125 9.894531 -7.640625 10.125 -6.609375 L 8.78125 -6.609375 C 8.613281 -7.316406 8.25 -7.867188 7.6875 -8.265625 C 7.132812 -8.671875 6.445312 -8.875 5.625 -8.875 C 4.957031 -8.875 4.359375 -8.722656 3.828125 -8.421875 C 3.304688 -8.117188 2.894531 -7.671875 2.59375 -7.078125 C 2.289062 -6.484375 2.140625 -5.757812 2.140625 -4.90625 C 2.140625 -4.039062 2.289062 -3.304688 2.59375 -2.703125 C 2.894531 -2.109375 3.304688 -1.660156 3.828125 -1.359375 C 4.359375 -1.066406 4.957031 -0.921875 5.625 -0.921875 C 6.445312 -0.921875 7.132812 -1.117188 7.6875 -1.515625 C 8.25 -1.921875 8.613281 -2.484375 8.78125 -3.203125 L 10.125 -3.203125 C 9.894531 -2.191406 9.382812 -1.378906 8.59375 -0.765625 C 7.8125 -0.160156 6.820312 0.140625 5.625 0.140625 C 4.695312 0.140625 3.875 -0.0625 3.15625 -0.46875 C 2.4375 -0.882812 1.875 -1.472656 1.46875 -2.234375 C 1.0625 -2.992188 0.859375 -3.882812 0.859375 -4.90625 Z M 0.859375 -4.90625 "/></g></g></g><g fill="rgb(0%, 0%, 0%)" fill-opacity="1"><g transform="translate(168.143248, 236.70779)"><g><path d="M 10.3125 -5.40625 C 10.3125 -4.96875 10.296875 -4.640625 10.265625 -4.421875 L 2.140625 -4.421875 C 2.171875 -3.671875 2.347656 -3.03125 2.671875 -2.5 C 2.992188 -1.976562 3.414062 -1.582031 3.9375 -1.3125 C 4.46875 -1.050781 5.046875 -0.921875 5.671875 -0.921875 C 6.484375 -0.921875 7.164062 -1.113281 7.71875 -1.5 C 8.28125 -1.894531 8.648438 -2.429688 8.828125 -3.109375 L 10.15625 -3.109375 C 9.914062 -2.148438 9.40625 -1.367188 8.625 -0.765625 C 7.84375 -0.160156 6.859375 0.140625 5.671875 0.140625 C 4.753906 0.140625 3.925781 -0.0625 3.1875 -0.46875 C 2.457031 -0.882812 1.882812 -1.472656 1.46875 -2.234375 C 1.0625 -2.992188 0.859375 -3.882812 0.859375 -4.90625 C 0.859375 -5.914062 1.0625 -6.800781 1.46875 -7.5625 C 1.875 -8.332031 2.441406 -8.921875 3.171875 -9.328125 C 3.898438 -9.742188 4.734375 -9.953125 5.671875 -9.953125 C 6.609375 -9.953125 7.425781 -9.742188 8.125 -9.328125 C 8.820312 -8.921875 9.359375 -8.375 9.734375 -7.6875 C 10.117188 -7 10.3125 -6.238281 10.3125 -5.40625 Z M 9.03125 -5.4375 C 9.039062 -6.164062 8.890625 -6.785156 8.578125 -7.296875 C 8.273438 -7.816406 7.859375 -8.207031 7.328125 -8.46875 C 6.804688 -8.738281 6.238281 -8.875 5.625 -8.875 C 4.6875 -8.875 3.890625 -8.570312 3.234375 -7.96875 C 2.578125 -7.375 2.210938 -6.53125 2.140625 -5.4375 Z M 9.03125 -5.4375 "/></g></g></g><g fill="rgb(0%, 0%, 0%)" fill-opacity="1"><g transform="translate(187.529005, 236.70779)"><g/></g></g><g fill="rgb(0%, 0%, 0%)" fill-opacity="1"><g transform="translate(200.669537, 236.70779)"><g><path d="M 0.921875 -0.984375 C 3.117188 -2.640625 4.816406 -4.117188 6.015625 -5.421875 C 7.222656 -6.734375 7.828125 -8.019531 7.828125 -9.28125 C 7.828125 -10.101562 7.617188 -10.765625 7.203125 -11.265625 C 6.796875 -11.765625 6.125 -12.015625 5.1875 -12.015625 C 4.28125 -12.015625 3.578125 -11.726562 3.078125 -11.15625 C 2.578125 -10.59375 2.300781 -9.835938 2.25 -8.890625 L 1.015625 -8.890625 C 1.085938 -10.210938 1.5 -11.242188 2.25 -11.984375 C 3 -12.722656 3.976562 -13.09375 5.1875 -13.09375 C 6.351562 -13.09375 7.289062 -12.765625 8 -12.109375 C 8.71875 -11.453125 9.078125 -10.523438 9.078125 -9.328125 C 9.078125 -7.878906 8.472656 -6.476562 7.265625 -5.125 C 6.066406 -3.769531 4.59375 -2.445312 2.84375 -1.15625 L 9.484375 -1.15625 L 9.484375 -0.09375 L 0.921875 -0.09375 Z M 0.921875 -0.984375 "/></g></g></g><g fill="rgb(0%, 0%, 0%)" fill-opacity="1"><g transform="translate(219.157998, 236.70779)"><g><path d="M 1.171875 -6.546875 C 1.171875 -8.609375 1.484375 -10.207031 2.109375 -11.34375 C 2.742188 -12.476562 3.882812 -13.046875 5.53125 -13.046875 C 7.164062 -13.046875 8.300781 -12.476562 8.9375 -11.34375 C 9.570312 -10.207031 9.890625 -8.609375 9.890625 -6.546875 C 9.890625 -4.453125 9.570312 -2.832031 8.9375 -1.6875 C 8.300781 -0.539062 7.164062 0.03125 5.53125 0.03125 C 3.875 0.03125 2.734375 -0.539062 2.109375 -1.6875 C 1.484375 -2.832031 1.171875 -4.453125 1.171875 -6.546875 Z M 8.65625 -6.546875 C 8.65625 -7.660156 8.578125 -8.597656 8.421875 -9.359375 C 8.265625 -10.128906 7.957031 -10.75 7.5 -11.21875 C 7.050781 -11.6875 6.394531 -11.921875 5.53125 -11.921875 C 4.664062 -11.921875 4.003906 -11.6875 3.546875 -11.21875 C 3.097656 -10.75 2.796875 -10.128906 2.640625 -9.359375 C 2.484375 -8.597656 2.40625 -7.660156 2.40625 -6.546875 C 2.40625 -5.398438 2.484375 -4.441406 2.640625 -3.671875 C 2.796875 -2.898438 3.097656 -2.28125 3.546875 -1.8125 C 4.003906 -1.34375 4.664062 -1.109375 5.53125 -1.109375 C 6.394531 -1.109375 7.050781 -1.34375 7.5 -1.8125 C 7.957031 -2.28125 8.265625 -2.898438 8.421875 -3.671875 C 8.578125 -4.441406 8.65625 -5.398438 8.65625 -6.546875 Z M 8.65625 -6.546875 "/></g></g></g><g fill="rgb(0%, 0%, 0%)" fill-opacity="1"><g transform="translate(238.436074, 236.70779)"><g><path d="M 0.921875 -0.984375 C 3.117188 -2.640625 4.816406 -4.117188 6.015625 -5.421875 C 7.222656 -6.734375 7.828125 -8.019531 7.828125 -9.28125 C 7.828125 -10.101562 7.617188 -10.765625 7.203125 -11.265625 C 6.796875 -11.765625 6.125 -12.015625 5.1875 -12.015625 C 4.28125 -12.015625 3.578125 -11.726562 3.078125 -11.15625 C 2.578125 -10.59375 2.300781 -9.835938 2.25 -8.890625 L 1.015625 -8.890625 C 1.085938 -10.210938 1.5 -11.242188 2.25 -11.984375 C 3 -12.722656 3.976562 -13.09375 5.1875 -13.09375 C 6.351562 -13.09375 7.289062 -12.765625 8 -12.109375 C 8.71875 -11.453125 9.078125 -10.523438 9.078125 -9.328125 C 9.078125 -7.878906 8.472656 -6.476562 7.265625 -5.125 C 6.066406 -3.769531 4.59375 -2.445312 2.84375 -1.15625 L 9.484375 -1.15625 L 9.484375 -0.09375 L 0.921875 -0.09375 Z M 0.921875 -0.984375 "/></g></g></g><g fill="rgb(0%, 0%, 0%)" fill-opacity="1"><g transform="translate(256.924528, 236.70779)"><g><path d="M 0.5625 -11.734375 L 0.5625 -12.875 L 3.609375 -12.875 L 3.609375 0 L 2.328125 0 L 2.328125 -11.734375 Z M 0.5625 -11.734375 "/></g></g></g></svg>